<svg xmlns="http://www.w3.org/2000/svg" viewBox="0 0 64 64">
  <defs>
    <linearGradient id="bg" x1="0" y1="0" x2="1" y2="1">
      <stop offset="0%" stop-color="#1a0533"/>
      <stop offset="100%" stop-color="#0d1b3e"/>
    </linearGradient>
    <linearGradient id="glow" x1="0" y1="0" x2="0" y2="1">
      <stop offset="0%" stop-color="#a78bfa"/>
      <stop offset="100%" stop-color="#7c3aed"/>
    </linearGradient>
    <filter id="blur">
      <feGaussianBlur stdDeviation="1.5"/>
    </filter>
  </defs>
  <rect width="64" height="64" rx="14" fill="url(#bg)"/>
  <circle cx="20" cy="48" r="1.5" fill="#7c3aed" opacity="0.6"/>
  <circle cx="52" cy="12" r="1" fill="#a78bfa" opacity="0.4"/>
  <circle cx="48" cy="56" r="1" fill="#c4b5fd" opacity="0.3"/>
  <circle cx="8" cy="22" r="1" fill="#7c3aed" opacity="0.5"/>
  <rect x="18" y="24" width="4" height="16" rx="2" fill="url(#glow)" filter="url(#blur)" opacity="0.5"/>
  <rect x="18" y="24" width="4" height="16" rx="2" fill="#fff"/>
  <rect x="26" y="20" width="4" height="24" rx="2" fill="url(#glow)" filter="url(#blur)" opacity="0.5"/>
  <rect x="26" y="20" width="4" height="24" rx="2" fill="#fff"/>
  <rect x="34" y="16" width="4" height="32" rx="2" fill="url(#glow)" filter="url(#blur)" opacity="0.5"/>
  <rect x="34" y="16" width="4" height="32" rx="2" fill="#fff"/>
  <rect x="42" y="22" width="4" height="20" rx="2" fill="url(#glow)" filter="url(#blur)" opacity="0.5"/>
  <rect x="42" y="22" width="4" height="20" rx="2" fill="#fff"/>
  <rect x="50" y="26" width="4" height="12" rx="2" fill="url(#glow)" filter="url(#blur)" opacity="0.4"/>
  <rect x="50" y="26" width="4" height="12" rx="2" fill="#fff" opacity="0.8"/>
</svg>
